<?xml version="1.0" encoding="UTF-8"?>
<svg enable-background="new 0 0 1875 1920" version="1.1" viewBox="0 0 1875 1920" xmlns="http://www.w3.org/2000/svg">
 <path d="m1557 28.95c5.05-0.49 10.13-0.33 15.19-0.77-8.62 1.79-17.4 2.9-25.94 5.11-14.74 3.9-29.86 6.77-43.85 13.01-9.12 4.4-18.41 8.44-27.62 12.67-12.64 6.69-24.88 14.1-36.92 21.83-7.22 4.32-13.72 9.7-20.66 14.42-17.54 11.86-35.98 22.42-55.43 30.82-14.75 6.92-30.59 11.4-46.63 14.06-16.03 3.8-32.48 5.67-48.91 6.53-1.37 0.49-2.78 0.99-4.12 1.48 4.92-0.81 9.89-0.98 14.87-0.86 13.97-0.95 28.02-0.36 41.98-1.63 35.71-0.66 71.31-3.89 106.9-6.66 14.8-1.16 29.48-3.44 44.26-4.89 33.11-3.95 65.94-9.83 98.8-15.41 23.63-4.74 47.25-9.66 70.47-16.15 12-3.33 24.13-6.2 35.98-10.05 22.03-7.66 44.27-14.86 65.61-24.34 14.98-7.09 29.95-14.3 44.07-23.03 8.8099-4.96 16.8-11.18 25.1-16.94-5.49 8.15-11.19 16.17-17.03 24.07-5.97 6.18-9.78 14.03-15.8 20.16-6.0801 6.24-11.72 12.93-18.3 18.65-4.0701 4.96-9.41 8.62-13.98 13.07-13.53 11.71-28.88 21.05-44.75 29.23-20.32 10.18-41.55 18.56-63.32 25.07-15.05 4.8-30.53 7.93-45.84 11.72-9.11 1.41-18.02 3.83-27.14 5.14-10.99 1.78-21.87 4.13-32.86 5.84-13.83 1.98-27.6 4.38-41.49 5.9 8.62 2.39 17.59 2.85 26.38 4.3 15.29 1.97 30.56 4.52 45.99 4.75 14.4 0.91 28.83-0.11 43.11-2 11.76-1.57 23.6-3.07 35-6.52 20.82-4.9 40.7-13.13 59.89-22.47 18.49-8.91 36.02-19.69 53.04-31.12 14.18-10.03 28.72-19.63 41.96-30.92 6.05-5.14 12.05-10.33 17.91-15.68-8.85 20-19.52 39.13-30.54 58-8.71 14.89-19.34 28.55-30.59 41.59-14.6 16.14-30.89 30.99-49.72 42.07-7.8401 4.29-15.43 9.05-23.65 12.6-18.54 8.19-37.85 14.68-57.58 19.32-23.5 6.03-47.72 8.75-71.9 10.06-3.64 0.61-7.3401 0.51-10.99 0.83-6.0099 1.34-12.21 0.11-18.21 1.19 21.58 6.13 44.09 7.91 66.43 8.73l0.77 0.49c12.02-0.26 24.07 0.46 36.07-0.48 12.44-0.13 24.8-1.68 37.2-2.64 9.92-1.22 19.8-2.78 29.56-5.02 6.78-1.62 13.85-2.16 20.39-4.72 3.13-1.09 6.1699-2.47 9.39-3.32-9.2201 5.92-19.2 10.51-28.96 15.46-6.98 3.79-14.62 6.06-21.85 9.3-19.38 7.66-39.29 14.07-59.61 18.72-12.52 2.74-25.23 4.51-37.94 6.13-9.6801 1.47-19.47 2.07-29.24 2.31-20.94 1.7-41.97 1.47-62.97 1.51-10.66-0.1-21.33 0.24-31.97-0.27-11.69-0.19-23.26-2.05-34.96-1.99-7.1901-0.33-14.39-0.64-21.54-1.45 0.84 0.42 1.7 0.82 2.58 1.23 8.27 2.77 16.77 4.78 25.07 7.43 13.8 4.14 27.55 8.57 41.64 11.66 11.07 2.47 21.96 5.75 33.14 7.72 12.29 1.96 24.58 3.91 37 4.88 12.59 1.74 25.33 1.51 38.01 1.92 22.73-0.1 45.5-1.43 67.92-5.28 21.26-3.52 42.49-7.65 63.05-14.18 25.7-7.25 50.46-17.42 74.93-28.02 16.58-6.48 31.75-15.94 47.98-23.2 7.54-3.74 14.55-8.43 21.93-12.49-7.91 7.41-18.18 11.21-26.89 17.44-16.96 10.51-34.01 20.88-51.42 30.63-14.65 8.76-30.22 15.82-45.43 23.54-15.53 7.64-31.63 14.07-47.91 19.9-12.95 3.69-25.88 7.57-39.13 10.1-10.93 1.74-21.8 4.04-32.88 4.56-13.65 1.57-27.4 0.83-41.09 0.98-11.13 0.02-22.13-1.66-33.2-2.37-22.84-2.9-45.44-7.47-67.79-12.92-12.51-3.42-25.18-6.18-37.66-9.66-8.0599-2.73-16.37-4.61-24.32-7.63 12.64 11.42 25.78 22.3 39.33 32.65 17.74 13.08 35.37 26.36 54.27 37.74 14.59 8.13 28.92 16.78 43.97 24.09 42.08 21.36 86.28 39.6 132.88 48.15 12.69 2.58 25.6 3.53 38.51 4.31 3.99 0.06 7.99 0.19 12 0 18.12-0.48 36.4-2.87 53.32-9.67 9.6699-3.52 18.38-9.06 26.74-14.95-5.66 8.38-10.57 17.24-15.84 25.87-1.7899 2.77-2.71 6.77-6.2899 7.76-8.03 2.98-16.64 3.93-24.9 6.1-11.55 2.07-23.2 3.89-34.95 4.35-9.74-0.12-19.49 0.33-29.2-0.4-9.99-1.43-20.22-1.49-29.94-4.47-12.89-3.66-26.44-5.11-38.72-10.71-10.22-3.42-20.55-6.53-30.27-11.22-0.1599 0.1-0.47 0.28-0.6299 0.38 7.0399 3.48 12.92 8.8 19.52 12.99 10.49 7.59 22.04 13.51 33.17 20.09 13.18 6.87 26.34 14.11 40.65 18.37 8.77 1.99 17.39 4.7 26.35 5.85 14.86 1.87 30.08 2.74 44.83-0.41 16.6-2.62 33.23-6.24 48.53-13.42 11.54-4.19 22.64-9.47 33.77-14.63-6.15 6.3-13.01 11.83-19.1 18.19-19.1 19.31-39.5 37.28-58.81 56.39-0.74 0.85-1.8099 1.5-2.96 1.3199-36.8-14.34-74.42-26.54-111.31-40.65-5.9299-2.29-12.11-3.85-18.05-6.07-7.62-3.58-15.7-6.01-23.57-8.93-27.95-9.97-55.84-20.15-83.73-30.27-2.34 7.24 0 15.25 4.53 21.12 5.51 8.24 13.34 14.53 20.85 20.87 3.6901 3.19 8.2001 5.2401 11.89 8.44-4.46-1.88-9.3-2.32-13.94-3.58-12.86-1.86-25.33-5.65-37.54-10-9.64-2.92-18.32-8.17-27.23-12.73-6.65-3.13-11.53-8.78-17.56-12.82 2.88 2.98 5.6901 6.03 8.24 9.32 8.0901 7.48 16.39 14.72 24.89 21.71 18.39 13.59 37.1 26.8 56.97 38.16 16.89 8.53 33.37 18 50.97 25.03 3.22 1.7 6.7699 2.47 10.32 3.22-3.25 0.27-6.49-0.04-9.67-0.65-7.58-1.48-15.4-1.53-22.84-3.71-8.5-2.5-17.33-3.79-25.57-7.14-10.34-3.35-20.36-7.52-30.46-11.49-10.59-5-21.11-10.16-31.58-15.39-7.35-4.53-14.69-9.08-21.94-13.77-7.6001-5.49-15.32-10.82-22.84-16.42 12.13 13.19 25.23 25.46 39.04 36.88 8.58 7.17 16.92 14.68 26.26 20.88 24.17 17.26 50.4 31.96 78.53 41.68 22.38 8.4 45.88 13.31 69.4 17.28 12.74 2.74 25.77 3.51 38.7 4.98 12.63 1.41 25.36 0.41 38.04 1.04 12.46 0.5 24.88-1.19 37.33-0.95-22.94 7.5-46.46 13.77-70.52 16.18-6.95 0.53-13.88 1.59-20.85 1.31-3.65-0.19-7.26 0.71-10.88 0.29-5.41-0.65-10.88 0.17-16.24-0.87-12.75-2.11-25.72-2.72-38.38-5.35-22.54-4.95-44.72-11.82-65.91-21.02-19.16-7.61-37.55-17.03-55.32-27.45-16.29-8.7599-31.76-18.91-47.29-28.93-10.7-7.32-20.77-15.53-31.38-22.95 11.8 15.51 25.51 29.42 39.62 42.81 26.71 25.48 57.17 46.87 89.35 64.85 6.26 3.55 13.02 6.07 19.37 9.46 7 3.95 14.89 5.79 22.31 8.77 13.95 5.55 28.84 8.51 43.83 9.1-11.13 4.5099-23.13 5.94-34.99 7.07-22.97 1.21-46.18-0.39-68.6-5.67-22.81-4.41-45.03-11.84-65.95-21.93-17.82-7.93-34.34-18.46-50.3-29.61-6.4401-5.14-13.04-10.14-18.68-16.17 6.53 16.56 15.41 32.04 24.56 47.26 12.47 19.01 27.56 36.15 43.54 52.25 12.18 11.88 24.28 23.85 36.68 35.49 15.15 14.87 31.52 28.44 46.23 43.75 4.5601 5.1 9.61 9.7599 13.92 15.08 7.11 8.62 14.97 16.74 20.62 26.46 10.42 15.86 18.6 33.84 19.37 53.07 0.62 11.22-0.7 22.62-4.33 33.28-2.67 6.98-5.3301 13.97-8.55 20.72 2-8.51 3.03-17.2 4.54-25.81 0.0599-6.12 0.1-12.25-0.04-18.37-1.5599-11.36-2.29-23.11-6.99-33.73-4.4301-9.64-9.45-19.05-15.66-27.66-10.09-13.68-21.65-26.33-34.47-37.49-9.23-9.28-19.99-16.8-30.39-24.67-13.51-10.45-27.39-20.42-40.65-31.18-15.58-11.98-30.02-25.37-43.86-39.3-14.38-14.98-26.64-31.88-37.04-49.82-7.3301-13.34-12.63-27.71-16.71-42.34-6.14 0.25-12.14-1.42-18.27-1.2 1.1001-8.5 3.2201-17.83-0.7999-25.88-2.79-5.67-9.66-6.42-15.27-6.11-9.11 0.79-18.19 2.51-26.76 5.76-3.64 1.42-6.67 3.98-9.4399 6.66-2.63 2.62-5.55 5.07-7.3101 8.41-2.02-8.6-3.09-17.78-0.55-26.38 2.8-7.37 7.9-14.48 15.51-17.37 6.77-3.46 12.83-8.21 19.87-11.15 5.11-2 10.34-3.66 15.6-5.24-0.28-7.79-0.2001-15.6-0.79-23.36-0.85-3.54-0.4301-7.1801-0.5-10.77-1.71-24.86-5.65-49.5-9.89-74.02-2.76-10.03-4.49-20.38-8.39-30.06-4.0499-11.51-7.08-23.47-12.97-34.23-9.3201-19.24-20.81-37.39-34.16-54.09-10.76-14.05-23.62-26.26-36.95-37.83-6.66-6.09-13.62-11.86-21.01-17.05-6.1801-4.13-11.73-9.17-18.29-12.72-10.07-6.02-20.09-12.15-30.63-17.32-8.77-5.33-18.12-9.55-27.16-14.34 1.01 8.19 3.6101 16.34 2.3401 24.66-0.91 8.45-0.76 17.31-4.4301 25.16-2.62 5.73-5.1899 11.62-9.26 16.5-14.72 18.46-36.76 29.82-59.34 35.54-12.54 3.74-25.6 5.24-38.55 6.82-14.37 1.75-28.85 1.72-43.29 2.24-3.3199 8.01-5.7 16.44-8.09 24.79-2.68 8.39-2.92 17.24-3.79 25.93 0.68 11.95 2.3799 24.03 7.2599 35.07 4.33 11.26 12.76 20.21 21.41 28.36 4.23 3.56 8.44 7.29 13.44 9.78 10.06-1.85 19.98-4.47 29.67-7.77 12.44-4 25.05-7.41 37.59-11.1 7.63-1.77 14.26-6.4 21.94-8.02 7.02 4.37 13.96 9.08 21.88 11.74 21.04 9.36 44.22 11.85 65.87 19.28 9.29 2.58 18.44 7.74 23.59 16.15 2.3899 4.86 5.4399 9.9 4.97 15.54 0.11 5.94-3.3101 12.08-9.0601 14.16-6.6599 2.83-13.82-0.42-19.27-4.32-3.5-2.77-6.8899-5.67-10.16-8.7-2.4401-2.31-5.7201-3.61-7.7201-6.37-1.6499-2.39-4.22-3.76-6.5199-5.39-7.8201-6.3-16.83-10.87-25.78-15.3-4.84-1.64-9.52-3.69-14.2-5.72-10.93-3.21-22.39-5.51-33.82-4.22-10.98 1.32-21.9 3.12-32.74 5.3-9.53 1.88-19.13 3.36-28.57 5.62 8.71 5.46 18.86 7.84 28.18 12 3.9401 1.22 7.88 2.51 11.94 3.34-5.2401 0.57-10.54 0.3-15.74-0.49-5.48-0.65-11.04 0.28-16.49-0.67-6.47-1.11-13.17-0.67-19.51-2.51-4.96-1.2-10.13-1.01-15.08-2.21-7.81-1.48-14.39-6.3-21.95-8.47-2.72-0.8-4.87-2.75-7.46-3.82 3.29 3.25 7.62 5.16 11.26 7.99 6.65 4.98 13.74 9.32 21.19 13.01 15.25 8.73 31.25 16.12 47.67 22.36 12.35 5.33 25.48 8.45 38.5 11.66 15.39 3.96 31.22 6.06 47.05 7.35 10.68 0.38 21.36-0.28 32.05-0.56 4.0199-1.01 8.25-0.48 12.37-0.71-2.13 0.4901-4.29 0.76-6.4501 0.88-5.52 0.3-10.73 2.34-16.15 3.19-9.2999 1.04-18.54 2.49-27.82 3.65-24.48 1.69-49.33 0.58-73.21-5.33-7.0701-1.46-13.78-4.16-20.79-5.84-5.9-1.51-11.14-4.77-16.99-6.42-12.01-3.75-23.01-9.96-34.43-15.09-17.02-7.08-33.13-16.06-49.73-24.03 2.3101 3.23 3.9301 6.97 6.94 9.67 8.75 10.59 18.48 20.44 29.53 28.63 3.64 2.6201 6.89 5.84 11.04 7.7 5.51 2.11 9.77 6.4 14.94 9.16 18.9 8.88 38.79 15.88 59.48 19.09 18.55 2.98 37.5 3.86 56.22 2.05 13.08-0.52 25.92-3.2599 38.81-5.3 8.8899-1.36 17.36-4.4 26-6.76 12.57-3.75 24.85-8.46 36.8-13.89 4.05-1.42 7.67-4.13 12.05-4.54-9.39 4.18-18.05 9.79-27.31 14.23-11.29 5.7-22.68 11.33-34.67 15.43-8.87 2.98-17.54 6.6-26.67 8.73-9.6 2.16-19.15 4.75-28.99 5.49-7.7001 0.81-15.46 0.97-23.18 1.48-4.09 0.3199-8.2-0.9901-12.25-0.01 6.3301 2.9 12.54 6.3 19.4 7.8 5.6801 1.38 11.14 3.61 16.95 4.48 9.6 1.22 19.27 2.04 28.96 1.79 7.48 0.35 14.74-1.73 21.99-3.16 1.8 3.28 3.01 7.06 5.99 9.54 3.92 3.35 8.84 5.15 13.38 7.47 0.83 0 2.49-0.01 3.3199-0.01-4.0299 0.87-8.2 0.9-12.16 2.08-8.7201 2.76-16.09 9.94-18.4 18.88-2.55-5.85-8.4401-10.07-14.67-11.1-2.89-0.7-5.5699 0.87-8.0699 2.08-5.02 2.51-8.9 6.68-12.59 10.8-1.3601-3.91-3.8401-7.28-6.65-10.25-5.23-5.17-14.55-5.23-19.86-0.15 1.1899-3.1 0.9299-6.42-0.79-9.24-5.13-4.22-11.9-6.46-18.53-6.02-5.6-0.25-11.14 0.41-16.62 1.45 2.5-3.59 0.65-8.41-2.72-10.7-3.3201-2.35-6.5-4.96-10.21-6.68-4.28-2.29-9.15-2.92-13.72-4.37-4.8199-1.2401-9.77-2.37-14.78-2.13-13.32 0.45-26.6 1.85-39.93 1.01-7.02-0.67-14.1-0.6201-21.08-1.6801-9.71-1.67-19.59-2.56-29.05-5.44-10.19-2.5-19.89-6.53-29.72-10.14-8.4901-3.23-17.03-6.46-24.9-11.02-2.27-1.33-4.4-2.94-6.92-3.75 3.68 10.44 9.83 19.69 15.97 28.81 6.77 9.37 14.55 17.93 22.89 25.91 7.43 8.41 17.73 13.24 27.2 18.88 10.76 6.23 22.4 11.17 34.69 13.36 5.65 1.16 11.33 2.25 16.99 3.43 14.15 1.34 28.47 2.04 42.58-0.1-7.15 3.91-13.8 8.97-21.81 11.03-5.98 2.54-12.55 3.3-18.99 2.87 5.26 3.32 10.87 6.11 16.74 8.2 11.23 3 22.79 5.4 34.48 5.06 3.29-0.01 6.5901-0.01 9.89 0.04-10.63 3.29-21.38 6.34-32.46 7.67-26.52 2.35-52.94-2.5699-78.77-8.09-8.34-2.5-16.95-4.04-25.19-6.79 5.63 7.68 13.47 13.27 20.48 19.6 15.97 11.93 33.04 22.37 50.92 31.19 27.2 14.03 56.32 24.28 86.19 30.85 6.96 1.7 13.9 3.59 21.02 4.49 8.96 0.46 17.74 2.6201 26.7 3.21-9.89 1.84-19.55 4.85-29.56 6-8.0901 0.95-16.07 3.02-24.26 2.94-4.97-0.12-9.89 0.95-14.84 0.53-5.45-0.67-10.96-0.29-16.39-1.04-14.95-1.75-29.59-5.47-43.88-10.08-5.48-0.91-10.48-3.27-15.73-4.9 8.55 6.21 17.19 12.6 27.21 16.27 9.9 3.61 19.61 7.85 29.89 10.33 9.52 2.35 19.13 4.36 28.83 5.74 6.24 0.9 12.64-0.27 18.81 1.23-9.77 1.58-19.41 3.96-29.29 4.75-13 1.74-26.15 1.48-39.21 0.81-4.87-0.48-9.78-0.97-14.47-2.4-4.31-1.41-8.89-1.8-13.05-3.67 8.72 5.95 18.03 10.95 26.68 17.01 7.49 5.06 15.05 10.07 23.2 14.03 7.25 4.32 14.17 9.22 21.64 13.18 6 2.7 12.09 5.2401 17.94 8.28 3.76 1.95 8.04 2.45 12.05 3.73-9.4301-1-18.93-0.45-28.37-1.23-8.9501 0.23-17.91-1.03-26.84-0.42-6.65-3.54-12.38-8.49-18.69-12.56-18.64-12.86-37.13-25.94-55.34-39.39-16.6-12.19-33.22-24.55-47.54-39.43-1.58-1.38-2.56-3.65-4.59-4.36-6.17 11.48-11.04 24.63-8.79 37.86 0.76 8.15 4.68 15.49 8.33 22.66 5.6 9.29 12.71 17.94 21.94 23.83 6.02 4.29 12.37 8.23 19.3 10.89 10.44 3.32 21.25 5.3 32.08 6.89 4.03 0 8.03-0.93 12.09-0.79 6.17 0.28 12.05-2.06 18.19-2.19-4.63 2.27-8.59 5.6-13.09 8.08-5.22 3.15-10.87 5.5-16.16 8.53-7.66 4.33-16.39 5.96-24.73 8.45-2.91 0.73-5.98 0.39-8.82 1.4 9.02 6.62 17.11 14.43 25.98 21.23-12.66-0.22-25.37 0.37-37.93-1.64-13.29-0.9-26.49-3.06-39.32-6.62-6.74-2.45-13.9-3.78-20.25-7.23-4.75-2.68-10.34-4.06-14.31-7.97-3.05-2.94-6.59-5.41-9.04-8.91-3.03-4.5-5.56-9.38-6.66-14.72-2.72 5.06-5.79 10.3-5.79 16.23-0.01 7.94 1.17 16.08 4.52 23.35 6.79 10.04 12.49 21.83 23.78 27.6-3.81-1.08-7.78-1.08-11.65-1.78-11.35-2.84-23.35-3.68-33.88-9.21-10.9-4.3799-21.4-9.96-30.36-17.62-10.38-7.77-19.91-16.81-27.23-27.54-6.4-8-9.77-17.81-14.77-26.63 2.82 10.02 4.2 20.49 3.88 30.9-0.67 5.39-2.4 11.59-7.75 14.1-6.75 2.07-13.27-1.42-19.66-3.13-8.33-2.51-17.3-6.41-25.98-3.12-4.81 2.01-9.48 5.78-11.07 10.9-1.87 9.82 3.75 18.75 9.24 26.35-7.34-4.52-16.17-5.51-24.61-4.82-7.33 0.7-13.72 5.33-17.8 11.28-8.31 10.28-12.55 23.02-17.03 35.26-4.46 17.1-8.69 34.36-10.67 51.95-3.2 18.61-3.84 37.56-5.83 56.3-0.15 0.34-0.45 1.02-0.59 1.37-7.83-8.54-15.97-16.95-25.44-23.69-25.9-21.46-54.5-39.32-83.15-56.83-13.71-8.46-27.95-16.32-39.97-27.16-6.35-5.94-13.5-11.24-18.29-18.62-5.74-7.64-8.14-17.05-10.98-26.01-2.96-10.17-6.34-20.25-8.39-30.66-0.14-3.33-0.79-6.57-1.94-9.68-0.06-11.4-2.86-22.57-3.28-33.95 0.18-7.65 0.87-15.32 2.77-22.74 1.38-3.2-2.55-4.85-3.65-7.42-5.15-10.13-9.34-20.72-13.51-31.27-4.59-14.47-7.88-29.36-9.51-44.45-3.14-20.87-3.82-42.01-3.48-63.08 1.09-10.91 0.44-21.94 2.24-32.79 1.02-12.47 3.4-24.79 6.02-37.02 1.67-9.89 5.19-19.32 8.49-28.74 1-2.7 2.98-4.87 4.17-7.46-0.14-3.65-0.91-7.28-0.67-10.96-0.17-19.42 4.77-38.34 10.03-56.87 2.76-9.41 5.66-18.78 9.14-27.96 8.09-18.46 15.13-37.45 24.96-55.1 11.77-21.64 24.92-42.54 39.52-62.39 5.8-8.96 13.4-16.51 20.29-24.59 5.65-6.04 10.81-12.52 16.79-18.25 7.22-7.5 15.31-14.1 23.36-20.69 13.36-10.84 27.19-21.21 42.02-29.98 10.03-5.79 20.58-10.63 31.39-14.79 14.78-5.32 29.77-10.5 45.42-12.59 5.2599-1.34 10.71-1.4 16.06-2.23 9.39-0.24 19.01-2.38 28.27-0.06 4.61-3.78 8.27-8.58 13.17-12.03 9.74-8.39 21.17-14.42 32.39-20.55 7.21-4.1 15-7 22.58-10.32 20.86-9.48 43.32-14.8 65.75-19.05 10.6-1.68 21.06-4.49 31.82-5.09 9.9-1.2 19.9-0.54 29.85-0.62 10.06 1.04 20.38 1.19 30.04 4.51 2.95-1.82 5.42-4.29 8.3-6.21 4.44-2.37 9.01-4.59 13.91-5.83 9.12-2.43 18.34-5.38 27.89-4.99 12.16-2.45 24.63-2.03 36.96-2.9 20.04 0.18 40.08-0.58 60.12 0.02 2.4901 0.09 3.91-2.38 5.25-4.11 2.4701-3.79 5.8401-6.89 9.4901-9.53 9.1799-7.36 20.18-12.2 31.49-15.23 13.97-3.6 28.4-4.77 42.76-5.7 12.64-1.04 25.35-0.16 38.02-0.78 5.53-0.7 11.14-0.45 16.7-1.05 13.91-1.22 27.63-3.95 41.39-6.34 8.51-1.66 17.16-2.58 25.55-4.86 20.23-5.15 40.28-11.4 59.3-20.08 19.24-8.65 39.07-15.95 59.15-22.38 11.94-2.79 23.83-6 36.07-7.27 11.79-2.31 23.79-3.11 35.67-4.82 17.27-2.26 34.71-2.58 52.08-3.21 3.3295 0.2105 6.6596-0.1595 9.9996-0.1195m-688.99 484.83c2.84 8.3199 8.1 15.69 13.92 22.23 4.02 3.66 7.28 8.09 11.67 11.34 8.02 5.94 15.98 12.27 25.46 15.75 11.11 5.13 23.02 8.11 34.75 11.43 12.28 2.5 24.68 4.62 37.17 5.78 3.61 0.35 7.3101-0.06 10.89 0.75 9.52 0.14 19.07 0.27 28.59-0.06-3.5499-1.21-7.22-1.96-10.8-3.01-22.87-5.71-44.82-14.44-66.68-23.14-10.58-4.15-20.62-9.5-31.17-13.72-11.79-5.73-23.59-11.43-35.28-17.37-6.2-3.3101-13.07-5.4101-18.52-9.9801z"/>
 <path d="m1287.2 649.91c5.27 0.46 10.5 1.36 15.66 2.53 4.62 0.98 8.38 4.19 13.03 5.11 7.13 2.24 14.15 5.11 21.73 5.52-2.5 8.91-0.12 18.12 2.61 26.66 1.98 4.74 4.33 9.35 7.1 13.69-9.14-1.3-18.06-3.67-27.14-5.28-1.0399-8.07-4.7899-16.2-11.24-21.35-5.3099-3.52-11.33-5.83-17.55-7.12-1.04-4.49-3.02-8.79-3.02-13.45-0.3501-2.12-0.8801-4.2-1.1801-6.31z"/>
 <path d="m1313.5 717.19c14.65 3.61 28.67 9.53 43.43 12.81 6.84 2.07 13.74 4.25 20.9 4.88-6.41 0.92-13.76 0.61-18.74 5.46-4.76 4.92-4.5801 12.43-2.9401 18.62 3.37 18.21 19.64 31.41 36.78 36.25 10.79 3.55 22.08 5.17 33.24 7.13 12.93 1.28 25.21 5.8 37.81 8.67 9.76 2.32 18.67 7.03 27.65 11.35 8.4501 4.21 16.34 9.42 24.06 14.83 7.77 5.13 15.12 10.89 22.24 16.89 9 9.33 17.83 18.86 25.92 29.02-6.6599-5.97-14.85-9.87-22.65-14.1-11.44-6.09-24.21-9.31-37.07-10.46-8.3099-0.57-16.7-1.5099-25-0.5099-11.72 0.36-23.48-0.19-35.16 1.06-4.97 0.5-9.95 0.0099-14.9-0.3-16.59 0.21-32.77-3.95-48.63-8.36-5.23-1.49-10.05-4-15.08-5.95 1.63 4.14 5.4701 6.62 8.04 10.11 3.74 3.66 7.5699 7.39 12.23 9.89 6.3101 3.53 11.75 8.42 18.2 11.74 20.07 11.42 41.75 19.9 64.01 25.98 7.6699 1.35 15.29 3.17 23.11 3.56-22.8 3.83-46.33 4.39-69.01-0.62-8.2001-1.08-15.46-5.28-23.39-7.32-3.8-0.84-7.25-2.6-10.83-3.99 13.06 15.7 30.32 27.71 49.3 35.16 8.97 3.31 18.43 5.8 28.07 5.44 6.47 0.95 12.99 0.09 19.39-0.99-17.25 9.55-36.48 16.54-56.42 16.33-12.89 0.01-25.2-4.55-36.57-10.26-3.01-1.79-5.2-4.68-8.3199-6.29 5.38 5.23 10 11.15 15 16.75 11.36 12.24 18.98 27.41 25.16 42.8 4.7899 9.95 6.83 21.07 7.34 32.05 0.36 9.1001 2.11 18.26 0.4399 27.33-0.89-6.53-2.3199-12.94-4.01-19.3-1.36-8.84-5.2-17.03-8.3999-25.31-3-6.07-5.7201-12.31-9.39-18.01-7.2101-10.28-13.42-21.44-22.57-30.19-4.76-4.63-8.6599-10.07-13.61-14.48 4.0801 7.67 10.3 14.09 13.99 22.02 6.7001 14.41 10.75 30.19 11.04 46.11-1 6.34 0 12.78-0.9401 19.12-0.1599 0.72-0.47 2.14-0.62 2.85l-0.58-0.02c-0.61-11.18-2.5699-22.44-7.27-32.67-4.0399-9.21-9.11-17.96-14.9-26.17-9.5199-11.18-21.03-20.53-33.25-28.6-3.61-2.35-7.11-5.5-11.53-5.98-3.4601 0.11-4.52 3.5-4.9701 6.34-0.58 10.15 3.54 19.7 6.62 29.19-7.6899-15.42-19.56-28.18-29.86-41.85-2.2999 2.59-3.89 5.75-6.39 8.18-2.2699 2.04-4.7899 3.75-7.2799 5.5 10.3 3.6 18 14.07 17.69 25.09 0.14 8.96-3.78 18.54-11.7 23.28-3.3101 2.42-7.41 3.05-11.18 4.38 15.22 6.71 29.04 17.07 38.34 30.99 5.95 8.99 13.82 17.05 23.81 21.42 2.6 1.24 5.41 1.97 8.03 3.22-10.65 1.8199-21.6 2.02-32.21-0.17-4.73-1.2-9-3.65-13.28-5.89-2.9401-1.62-4.92-4.3899-7.51-6.4199 4.8099 7.72 9.4299 15.95 10.23 25.22 0.8 7.59 1.45 16.54-4.53 22.35 0.0701-8.03-3.03-15.66-6.11-22.94-7.3-14.5-20.05-25.53-33.98-33.46 0.3199-13.32 9.02-23.99 16.09-34.53-1.64 0.14-3.27 0.3-4.88 0.47-8.4199-0.24-16.68-2.77-24.01-6.88-8.14-3.71-15.46-8.91-22.45-14.43-8.1-7.93-16.55-15.51-24.81-23.26-5.9199-5.82-12.23-11.19-18.58-16.51-10.4-8.16-22.42-14.29-35.17-17.78-3.45-1.07-7.0699-1.48-10.48-2.61-1.53-2.07-2.48-4.5-3.76-6.7 7.9301-1.77 15.6-4.53 22.95-8.0099 9.11-4.1 18.43-7.84 27.03-13 8.8401-4.96 17.17-10.77 25.55-16.46 9.03-5.69 18-11.48 27.22-16.86 5.02-3.03 10.77-4.57 16.51-5.54 8.2101 0.34 16.38 3.13 22.61 8.59 2.4301 2.34 4.75 4.79 7.13 7.2 3.91-1.91 7.9301-4.3 12.49-3.39 5.66 0.06 9.7301 4.73 12.14 9.38 2.4301 4.76 2.48 10.18 3.48 15.32 3.2301-7.98 3.55-16.76 5.9801-24.99 2.1799-10.15 1.58-20.59 2.72-30.84 0.6899-10.46 1.22-20.94 1.1899-31.4 1.78-2.8 4.23-5.11 6.25-7.74 4.0601-4.34 6.73-9.71 9.3501-14.99 1.6899-5.84 3.3099-11.92 2.7899-18.07-1.1-12.07-6.5-23.54-14.5-32.57-4.8196-4.2805-8.7996-9.4605-14.13-13.16m-103.29 193.24c0.1399 2.68-0.79 6.69 2.25 8.07 7.9199 0.47 16.1 1.53 23 5.76 6.1 2.07 11.39 5.94 17.47 8.05 4.1 0.53 7.03-2.82 8.41-6.27-0.3501-3.25-0.4801-6.62-1.8101-9.63-1.45-2.84-3.4-5.37-5.36-7.85-3.4301-0.69-6.9401-0.47-10.32 0.31-5.58-1.53-9.75-6.94-15.87-6.37-6.8299-0.71-13.42 2.86-17.77 7.93z"/>
 <path d="m1239.8 775.07c8.1499-3.34 17.43-2.16 25.52 0.78 7.6899 4.32 12.11 12.29 15.02 20.33-2.26 0.49-4.5199 1.02-6.7699 1.5-0.3101-1.45-0.6001-2.88-0.88-4.31-3.55-4.59-9.29-5.95-14.71-6.87-7.6899 0.03-13.37 7.57-21.1 6.79-4.2-0.5099-5.49-4.93-6.16-8.43 0.7101-4.77 4.61-8.4 9.0801-9.79z"/>
 <path d="m1302.1 805.96c3.91-0.87 7.8401-1.65 11.85-1.91-5.39 4.57-10.36 10.95-17.84 11.8-3.26 0.87-4.7-2.46-5.5199-4.93-0.5701-2.12-0.02-4.3 0.08-6.43 3.6701 1.21 7.53 2.37 11.43 1.47z"/>
 <path d="m837.41 958.47c13.55 12.5 27.08 25.04 41.61 36.41 9.38 7.3 18.38 15.09 28.09 21.97 17.49 12.51 35.95 23.55 54.11 35.04 8.03 4.6799 15.88 9.67 24.26 13.73 8.74 4.17 17 9.27 25.91 13.1 34.66 16.99 70.88 30.68 107.79 41.94 34.73 10.58 70.51 19.14 106.98 19.69-26.36 14.27-53.64 27.11-82.26 36.2-22.89 8.96-46.98 14.14-70.89 19.56-11.59 2.78-23.31 4.85-35.13 6.35-14.38 3.05-29.06 4.0701-43.59 6.13-8.7 1.51-17.85 0.39-26.25 3.48 4.22-5.62 10.98-8.22 15.59-13.41 5.89-6.13 10.88-13.25 13.91-21.22 1.73-6.1699 4.31-12.08 5.32-18.44 3.15-11.81-0.73-24.17-6.19-34.69-8.26-14.47-19.6-27-31.81-38.23-13.46-13.23-27.96-25.34-42.37-37.51-15.99-13.74-32.63-26.73-48.26-40.87-9.98-8.66-19.86-17.41-29.85-26.04-1.07-0.96-2.02-2.12-2.29-3.55-1.11-6.6302-2.22-13.36-4.68-19.64z"/>
 <path d="m1265.9 1047.9c0.49 2.66 0.3099 5.39 0.63 8.09 3.45 11.93 4.3999 24.77 10.85 35.67 4.86 7.61 9.0599 15.87 15.99 21.87 10.51 11.35 24.34 18.98 38.68 24.4 11.16 2.99 22.51 5.5399 34.1 6.0399 8.2899 1.3601 16.63 0.0601 24.95-0.3199 13.23-1.21 26.5-2.11 39.75-2.71 2.37-0.15 4.76-0.11 7.16 0.1 10.84-1.1801 21.76-0.0601 32.61 0.4399 21.74 1.39 43.3 5.4 64.14 11.76 10.75 4.05 21.86 7.36 31.93 13.03 18.01 9.25 34.49 21.11 50.5 33.42 14.34 11.64 27.36 25 38.25 39.94 13.87 17.25 26.36 35.69 36.44 55.44 1.91-0.99 3.75-2.3401 5.97-2.54 4.61-0.36 9.63-0.74 13.74 1.84 5.1901 3.25 10.55 6.23 15.8 9.4-3.8101 5.02-5.13 12.12-1.7001 17.69 6.24 7.5399 16.67 8.0399 25.71 8.2899 8.37 1.02 16.51-1.5699 24.8-2.13 8.8101-1.71 18-2.0699 26.77 0.0901 7.87 2.75 15.14 8.6499 17.46 16.94 5.64 13.19 0.3201 29.41-10.94 37.87-6.26 4.05-14.41 3.9401-20.33 8.66-5.02 4.13-9.7201 9.37-11.06 15.93-1.61 6.92-1.62 14.54 1.41 21.09 3.75 9.7999 11.64 17.54 20.63 22.68 8.9199 5.88 19.21 9.13 29.53 11.54-0.1801 140.86 0 281.72-0.0901 422.59-0.0599 2.28 0.0701 4.5801 0.4601 6.87-316.34-0.15-632.69-0.02-949.03-0.0699-284.28 0.01-568.57 0-852.85 0.01 0.08-123.25 0.01-246.49 0.03-369.74-0.46-22.12 2.61-44.53 10.87-65.15 7.32-21.2 20.62-39.78 35.76-56.11 3.91-5.05 9.16-8.78 13.75-13.16 9.71-9.42 21.57-16.14 33.17-22.93 14.47-8.71 30.15-15.21 45.99-20.94 12.75-4.74 25.78-8.66 38.96-11.99 7.26-2.3 14.92-2.7001 22.36-4.12 26.96-4.91 53.92-9.88 80.89-14.77 21.16-3.54 42.26-7.47 63.11-12.54 25.5-5.6899 50.63-12.84 75.8-19.82 7.99-1.7001 15.5-4.99 23.32-7.28 16.14-4.77 31.71-11.22 47.08-18.05 18.3-9.1299 37.18-17.74 53.01-30.95 15.24-11.91 27.93-27.29 36.03-44.91 7.53-14.97 11.48-31.67 11.58-48.42 0.71-8.7201 0.56-17.46-0.47-26.14 4.15 11.37 7.09 23.25 7.3701 35.42-0.19 11.78-1.69 23.57-4.57 35.01-6.71 18.92-18.79 35.73-33.68 49.09-16.28 14.44-34.8 26.24-54.38 35.68-18.8 9.8201-38.88 16.87-59.01 23.44-17.98 6.2999-36.51 10.82-54.9 15.77-29.88 7.6499-60.25 13.09-90.36 19.71-12.85 2.72-25.9 4.26-38.89 6.1-5.67 0.83-11.24 2.38-16.97 2.7-6.31 0.4801-12.52 1.78-18.85 2.1101-12.53 1.6599-24.73 5.1699-37.19 7.2699-7.27 1.01-14.38 2.9601-21.52 4.66-12.17 4.03-24.46 7.92-36.02 13.56-6.31 3.35-12.72 6.52-18.85 10.18-8.25 5.76-16.9 11.01-24.58 17.56-8.89 7-17.2 14.71-25.53 22.36-12.17 10.62-21.18 24.27-29.19 38.16-6.28 10.38-9.3 22.23-12.59 33.79-2.38 11.4-2.69 23.23-0.78 34.73 1.82 7.15 3.63 14.77 8.95 20.24 3.46 4.2799 8.92 7.7699 14.6 6.5599 7.24-1.5 11.86-7.9 15.22-13.99 5.59 6.91 12.51 12.58 19.9 17.47 5.14 3.26 11.46 5.47 17.56 4.09 4.69-1.35 6.85-6.11 7.97-10.44 1.1-7.42-0.82-15.04-4.7-21.39-3.55-5.59-6.55-11.49-9.49-17.41-4.22-11.83-7.86-24.4-6.41-37.08 1.39-11.23 3.68-22.52 8.85-32.68 4.07-8.87 11.14-16.69 20.33-20.3 9.55-2.86 19.21 0.91 28.28 3.72 9.53 3.6 19 7.41 28.68 10.59 10.76 3.8501 22.7 4.6901 33.82 1.9701 8.07-1.3501 15.23-5.6001 22.11-9.77-7.84 7.72-11.39 18.64-12.42 29.37-0.85 10.67-0.03 21.38 1.26 31.98 3.97 21.59 13.47 41.83 25.33 60.16 5.49 6.8099 10.5 14.7 18.74 18.46 9.89 4.95 22.04-0.6 28.05-9.0599 5.22-5.2201 9.95-11.01 13.37-17.58 5.41-10.49 12.09-20.28 17.24-30.91 3.95-7.23 8.36-14.2 12.77-21.15 2.76-4.1801 6.81-8.05 11.87-9.04 2.5-0.48 4.7 1.29 6.29 3.03 3.53 3.47 5.03 8.36 7.26 12.68 3.9 10.61 6.12 21.8 10.43 32.29 3.11 7.88 5.78 16.31 11.65 22.66 2.81 2.52 6.54 4.76 10.47 3.76 7.64-0.74 12.8-6.8301 17.67-12.06 2.12 5.23 4.1 10.86 8.59 14.59 3.78 2.8301 7.74 5.9301 12.71 6.01 15.05 1.4601 29.4-6.73 39.28-17.61 6.81-8.04 11.99-17.6 13.97-28.01 1.83-9.71-0.2-19.64-3.69-28.73-2.88-7.45-7.19-14.45-13.08-19.89-0.65-0.74-1.19-1.5399-1.62-2.4 4.09-0.59 8.25-0.5 12.35-1.11 7.58-1.2999 15.28-0.5599 22.92-0.45 8.34 0.33 16.16 3.53 23.74 6.76 6.25 2.64 11.61 6.89 16.72 11.28 8.54 6.36 13.74 16 18.55 25.26 5.07 9.79 9.82 19.93 11.85 30.85 0.81 3.52 2.36 6.83 3.02 10.41 2.29-2.7999 4.07-6.0599 6.85-8.4099 6.28-4.98 14.92-6.14 22.63-4.67 15.14 3.8199 27.74 14.12 37.49 25.98 12.08 15.19 20.84 32.94 26.11 51.58 3.87 13.56 10.44 26.22 18.5 37.75 3.35 4.9399 7.84 8.9299 12.06 13.1 6.1 4.9299 13.41 8.97 21.43 9.28 7.99-0.8701 15.36-5.79 19.29-12.8 2.55-6.02 4.21-12.39 5.05-18.87 2.03-11.88 7.64-24.28 18.6-30.34 7.89-5.38 18.24-6.5601 27.34-3.9601 5.12 1.74 10.47 2.9701 15.11 5.86 9.7 4.6801 17.58 12.44 23.76 21.15 6.85 8.9401 12.08 19.66 12.58 31.07 0.96 9.83-1.83 19.59-5.29 28.68-4.51 7.5-9.25 15.24-10.9 23.97-1.88 8.1801 0.82 17.24 6.75 23.18 4.95 4.51 11.11 7.41 17.39 9.5699 14.84 3.65 30.66 3.7301 45.28-0.98 8.88-3.3099 17.75-8.99 21.37-18.15 2.46-6.0499-0.61-12.33-2.14-18.2-3-9.03-3.22-18.77-1.29-28.04 4.37-15.6 16.57-28.49 31.57-34.4 9.9-4.2301 21.43-5.42 31.69-1.7001 9.34 2.4301 16.6 9.16 24.22 14.72 6.2201 3.8601 13.31 6.51 20.66 6.9701 9.3101 0.4199 18.89-3.52 25-10.61 5.24-6.9401 9.76-14.54 12.18-22.95 5.7899-16.5 6.0599-34.21 9.63-51.21 2.63-9.47 5.86-18.77 8.73-28.16 5.8099-15.54 15.7-29.1 26.37-41.64 2.9199-4.0699 6.73-7.3199 10.81-10.19 9.65-8.25 21.67-12.75 33.28-17.47-4.21 8.35-7.58 17.23-8.86 26.55-4.51 21.02-2.88 43.7 6.74 63.12 1.62 3.26 3.99 6.0601 6 9.0801 3.11 4.72 8.23 7.45 12.8 10.52-6.2301 0.38-11.19 4.5-16.13 7.86-7.78 7.9301-16.74 14.76-23.3 23.84-9.99 13.81-19.55 28.17-25.81 44.1-2.3301 6.79-4.5801 13.64-6.01 20.69-1.4601 5.17-0.9401 10.61-2.24 15.82 12.19-7.4401 25.63-12.35 38.66-18.03 9.7201-3.4399 19.26-7.41 29.18-10.25 12.91-2.92 25.59-7.15 38.86-8.1899 21.15-1.0701 41.84-6.01 61.95-12.42 10.26-4.2 20.48-9.6899 27.57-18.43 3.1799-5.6699 3.66-12.91 0.99-18.88-3.14-8.59-11.13-13.82-18.41-18.62-8.91-5.08-18.73-8.8999-29.03-9.58-7.97-0.71-15.72-4.25-21.12-10.18-5.9399-7.27-7.85-17.12-6.96-26.29 1.39-16.92 9.49-33.76 23.44-43.83 3.4399-2.2799 7.96-3.22 11.81-1.37 6.5699 3.92 7.9401 12.92 15.07 16.16 4.77 1.9301 9.8-0.4299 13.91-2.86 4.3301-2.9301 9.72-5.01 14.99-3.75 5.88 1.23 11.72 2.99 17.14 5.61 4.75 3.1 10.25 6.52 16.17 5.5601 0.6799-5.51-0.66-10.95-3-15.9-2.64-7.8101-6.1801-15.29-8.6801-23.15-0.95-5.46-3.63-10.37-5.27-15.61-5.7-22.53-8.9399-46.1-5.5699-69.25 2.6801-18.46 10.9-37.4 26.9-48.03-0.05 3.8101 0.48 8.42 3.74 10.9 5.1899 2.61 11.64 1.47 16.5-1.42 7.52-4.5299 15.07-9.5299 20.42-16.63 4.75-6.72 9.28-14.55 17.24-17.87 5.38-2.5299 11.92-0.23 15.68 4.1001 6.6 7.5399 9.6901 17.48 10.53 27.34 3.1899-2.47 5.72-5.7001 9.13-7.91 4.71-3.65 10.26-6.04 16-7.54 2.84 0.9901 5.62 2.5701 7.66 4.8501 3.88 5.73 4.24 12.88 5.0199 19.55 0.6901 23.47-3.5199 46.93-10.57 69.25-1.61 4.72-3.46 9.47-6.33 13.59-5.12 6.49-12.86 10.37-20.77 12.29-4.52 1-9 2.16-13.49 3.24-5.74 1.14-10.13 5.27-15.14 8-6.53 5.65-8.86 14.3-11.38 22.23 4.84 0.8301 10.03 2.1801 13.14 6.3401 2.27 2.0599 2.64 5.27 2.1599 8.1699-3.0499 6.87-10.06 11.02-17.25 12.31-4.71 1.08-9.84 1.7-14.35-0.4301-1.88 5.4701-4.6 12.52-0.1699 17.49 7.6599 6.8 18.89 5.8501 28.26 4.14-7.3 10.7-13.68 22.02-19.78 33.44-5.8301 10.45-11.38 21.24-13.97 33.01-1.7001 6.59-3.8 13.49-1.9701 20.31 0.86 3.12 0.5601 6.98 3.37 9.2001 7.02 5.6499 16.77 5.8999 25.09 3.3199 7.88-1.1801 15.01-4.9399 21.99-8.59-1.05 7.21-0.66 14.48 0.6599 21.63 2.04 6.98 7.4401 13.04 14.35 15.49 9.83 3.33 20.33 1.76 30.42 0.78 16.97-2.2201 33.55-6.67 49.87-11.75 16.07-5.0801 32.43-9.27 48.24-15.15 27.61-8.88 54.45-20.31 79.52-34.93 12.96-7.73 25.24-17.8 31.88-31.67 2.62-6.7301 2.8301-14.08 2.02-21.17-0.9399-5.4401-3.22-10.49-5.25-15.57 5.48-0.24 10.79-3.4099 13.87-7.9199 3.28-6.4401 2.77-13.88 2.47-20.86-0.39-5.53-2.75-10.64-3.5499-16.07 8.2-1.21 17.18-3.58 22.55-10.4 1.9701-2.8999 3.65-6.1699 4.0801-9.6799-0.11-5.4401 0.63-11.08-1.55-16.22-1.8-3.99-2.9399-8.23-4.7-12.21-3.29-5.72-7.99-10.84-9.4601-17.44-1.0599-4.59 1.87-9.4401 6.3301-10.8 8.1699-2.5699 16.86-1.8199 25.25-3.08 3.4099-1.0701 6.84-3.37 7.25-7.24-3.11-3.47-5.9-7.41-10.09-9.65-7.5199-3.84-15.46-6.96-22.54-11.58-3.5801-2.92-7.6801-6.0901-8.7101-10.84-2.11-6.3899 1.89-13.86 8.3401-15.8-3.64-9.9501-7.2201-19.92-11.26-29.72-10.27-21.98-20.59-44.03-33.31-64.71-6.2-8.45-11.81-17.36-18.88-25.15-23.12-28.69-52.67-52.52-86.44-67.47-21.23-9.66-43.86-16.16-67.05-18.81-11.47-2.29-23.2-1.8-34.78-2.8101-11.42 0.03-22.85-0.39-34.24 0.54-12.67 0.4299-25.27 2-37.93 2.54-14.27 0.6499-28.57 1.85-42.84 0.6399-12.34-0.38-24.65-1.22-36.89-2.9099-11.22-1.8501-22.31-4.39-33.29-7.3201-9.5-1.1799-18.55-4.27-27.76-6.6599 2.51-1.9601 5.98-2.54 7.6901-5.4801 12.54-11.96 16.7-30.09 16.78-46.87 0.9501-11.01 1.29-22.14 0.0801-33.14-0.1403-1.6703 0.0397-3.3203 0.2397-4.9503z"/>
</svg>
