<?xml version='1.0' encoding='utf-8'?>
<svg xmlns="http://www.w3.org/2000/svg" viewBox="0 0 1952.48 3608.46"> <defs> <style> .cls-1 { fill: #ecf1f2; fill-opacity: 0.41; stroke: #51474a; stroke-width: 16.91px; } .cls-1, .cls-10, .cls-15, .cls-18, .cls-2, .cls-22, .cls-23, .cls-28, .cls-29, .cls-3, .cls-30, .cls-4 { stroke-linecap: square; } .cls-2 { fill: #e3ad3f; stroke-width: 5.22px; } .cls-10, .cls-2, .cls-4 { stroke: #987f69; } .cls-3 { fill: #fede76; fill-opacity: 0.82; stroke-width: 8.69px; } .cls-11, .cls-13, .cls-14, .cls-15, .cls-28, .cls-29, .cls-3, .cls-30, .cls-5 { stroke: #88775b; } .cls-11, .cls-23, .cls-4 { fill: #f1cf40; } .cls-4 { stroke-width: 3.72px; } .cls-10, .cls-15, .cls-5 { fill: #dce8eb; fill-opacity: 0.33; } .cls-11, .cls-13, .cls-14, .cls-17, .cls-5 { stroke-linecap: round; stroke-linejoin: round; } .cls-5 { stroke-width: 25.62px; } .cls-6 { fill: #ffb938; } .cls-7 { fill: #f1b513; } .cls-8 { fill: #dca31b; } .cls-9 { fill: #a07016; } .cls-10, .cls-15 { stroke-width: 22.02px; } .cls-11 { fill-opacity: 0.32; stroke-width: 10.8px; } .cls-12 { fill: #ffd163; } .cls-13 { fill: #e69a00; fill-opacity: 0.73; stroke-width: 20.45px; } .cls-14 { fill: #fcd035; fill-opacity: 0.38; stroke-width: 7.39px; } .cls-16 { fill: #fce29c; fill-opacity: 0.3; } .cls-17 { fill: #f2cf40; stroke-width: 14.78px; } .cls-17, .cls-22, .cls-23 { stroke: #a68131; } .cls-18 { fill: #ff9702; stroke: #cb5620; stroke-width: 22.91px; } .cls-19 { fill: #ffd91f; } .cls-20 { fill: #8ac624; } .cls-21 { fill: #749d15; } .cls-22 { fill: #bca057; } .cls-22, .cls-23 { stroke-width: 9.65px; } .cls-24 { fill: #e60000; } .cls-25, .cls-29 { fill: #f3f3f3; } .cls-26 { fill: #36a631; } .cls-27 { fill: #c1281a; } .cls-28 { fill: #a6ae31; } .cls-28, .cls-29, .cls-30 { stroke-width: 4.3px; } .cls-30 { fill: #51474a; } </style> </defs> <title>Layer 1</title> <g id="Layer_2" data-name="Layer 2"> <g id="Layer_1-2" data-name="Layer 1"> <g id="document"> <g> <g> <path class="cls-1" d="M47,2756.22c-22.18,0-39.79,23.09-38.49,49.26,7.83,119.3,28.05,425.64,39.79,497.22,12.39,70.81,75.67,151.63,101.76,182.42a35.66,35.66,0,0,0,27.39,13.08H491.21a35.65,35.65,0,0,0,27.39-13.08c26.75-31.56,90-112.38,101.76-182.42,12.39-71.58,32-377.15,39.79-497.22,2-26.17-16.31-49.26-38.49-49.26Z"/> <g> <path class="cls-2" d="M340.71,3423.25c-165.45,0-160.5,23.68-160.5,32.32s53.58,20.85,160.5,20.85S488,3464.21,488,3455.57,506.15,3423.25,340.71,3423.25Z"/> <path class="cls-3" d="M615.58,2947.32c-543,0-563.84-19.31-562.72,0,6.76,88,24.22,314,34.36,366.82,10.7,52.24,65.34,111.87,87.88,134.58,0,0-5.73,30.31,162,30.31s150-24.06,156.22-30.31c23.09-23.28,77.73-82.9,87.87-134.58C591.92,3261.33,608.82,3035.9,615.58,2947.32Z"/> </g> <path class="cls-4" d="M347.55,2917.57c-303.78,0-294.7,18.06-294.7,24.66s98.39,15.91,294.7,15.91S618,2948.82,618,2942.23,651.33,2917.57,347.55,2917.57Z"/> </g> <g> <g> <g> <g> <g> <path class="cls-5" d="M1937.56,1446.91h.14c0-15.15-260.6-140-331.62-323.08h-4.22c-23.94-23.61-135-20.08-263.87-20.08-129.44,0-233.46-3.56-255,20.41h-.53l-.48,1.22a14.88,14.88,0,0,0-3,7.34c-75,176.89-323.77,297.5-328.09,314.11l-.18.08c0,1734.92,19.62,1899.17,33,1935.7,21.24,74.54,346,111.23,565.28,111.23,386.73,0,571.89-65.15,571.89-111.23,0,0,26.31-1698.49,16.71-1935.7Z"/> <g> <g> <g> <path class="cls-6" d="M1203.13,673.67h220.74c116.13,0,299.52-33.27,299.52-42.77,91-70.54,133.06-190.89,124.59-255.23-62.78-42.74-136.92-70.61-236.9-70-24.42-72.31-53-120.11-105.81-198.83C1466.91,49.6,1427.51,0,1364,0s-106.1,24.28-160.9,106.8c-43.38,65.32-73.79,130.66-114,198.83-104.78,14.61-182.5,19.72-233.63,70-11.7,11.51,71.43,251.48,117.5,263.8C1097.69,672.82,1113.43,673.67,1203.13,673.67Z"/> <path class="cls-7" d="M1600.42,301.67C1577.85,240,1550.16,192.33,1504,119.83,1465.54,59.47,1426.07,7.12,1362.46,7.12s-106.3,25.62-161.22,112.71c-37.55,59.54-65.39,119.1-98.27,180.59,72.18-8.94,155.32-14,243.81-14,92.54,0,179.22,5.57,253.64,15.28Z"/> <path class="cls-8" d="M1719.58,646c-119.78,41.32-344.15,43.37-345.86,43.39-257.06,2.53-290.51-4-408-35.95-63-35.7-119.19-262-118.68-262.54,70.49-72.62,279.85-89.27,526.72-89.27s370.46,7.75,473.78,89.27c5.46,91.19-49.35,168-60.16,181.05s-21.16,28.94-21.16,28.94C1749.64,621,1719.58,646,1719.58,646Z"/> <g> <path class="cls-9" d="M1314.08,662.86c-157.56,0-328.77-11.71-328.77-47.78,0-24.44,156.34-44.23,349.48-44.23s372.34,12.91,372.34,44.23S1471.65,662.86,1314.08,662.86Z"/> <path d="M1333,570.85c171.34,0,292.86,14.28,263.46,22.83-15.82,4.59-131.79,20.23-263.46,20.23s-197.32-8.35-224.43-20.23S1161.6,570.85,1333,570.85Z"/> <path d="M1356.64,570c89.16,0,204.17,8.07,196.54,11.75-13.06,6.3-92.21,10.59-196.54,10.59s-193.25-3.94-207.81-10.59C1143.83,576.17,1267.48,570,1356.64,570Z"/> </g> </g> <path class="cls-10" d="M1610.22,1007.53c21-33,32.79-70.59,32.79-110.42,0-70.12-35.17-179.88-92.27-267.7h0c-48.57-52.8-78.62-119.82-78.62-162.37,0-15.74,4.29-30.89,12.22-45.05-12.85-25-28.92-46.28-47.3-62.57-26.85-26.61-59.28-42.16-94.19-42.16-54.92,0-103.69,38.48-134.26,97.95,7.93,14.16,12.22,29.3,12.22,45.05,0,42.54-30,109.56-78.62,162.36h0c-57.1,87.83-92.27,197.58-92.27,267.71,0,41.28,12.72,80.12,35.13,114,17.43-13.47,127.89-23.88,261.41-23.88,143.84,0,260.91,12.08,263.76,27Z"/> <path class="cls-11" d="M1590.84,1176.53l-3-215.66A196.51,196.51,0,0,0,1610,870.39c0-35-9-80.53-25-127.87h0c-73.12-1.89-153.88-2.93-243.29-2.93-86.67,0-165.14,1.06-236.35,3-14.76,45-22.92,88.09-22.92,121.49a196.46,196.46,0,0,0,22.6,91.28c-3.59,221.88-3.74,222.26-3.89,222.64-72,170.14-299.73,282.11-309.11,299.75l-.3,0v1h0c0,25.51.18,48.79.5,70l-.5.22C791.69,3166.87,810,3320,822.47,3354.1c19.8,69.51,322.74,103.73,527.25,103.73,360.72,0,533.42-60.75,533.42-103.73,0,0,23.74-1532.33,16-1793.15,1.88-38.82,2.33-70.84-.27-82.57l1.82,0C1900.7,1464.26,1657.19,1347.63,1590.84,1176.53Z"/> </g> <path class="cls-12" d="M962.38,653.78c23.34-39.74,178-72.26,383.68-72.26,159,0,304.34,11,374.71,64,73.15-26.92,108.81-110.77,134.17-251.26,0,.25-.42-.16-1.5-1.13a20.69,20.69,0,0,0,0-2.49c0-57.65-160.85-115.52-507.38-104.4S838.53,333,838.53,390.63a22.75,22.75,0,0,0,.31,3.68c-.06,0-.08,0-.08-.07l.21.77a25.72,25.72,0,0,0,.93,3.35h0C877.15,532.26,912,609.89,962.38,653.78Z"/> </g> <path class="cls-13" d="M1450.23,3233.56H1247.52c-312.48,0-414,42.65-417.61,57.15-4,15.88-15.54,30.51,0,65.39,9.12,1.79-5.63,60.3,417.61,91.67,145.29,10.76,182.37,1.67,202.71,0,468.91-38.62,408.5-89.88,417.61-91.67,15.54-34.88,4-49.51,0-65.39C1864.19,3276.21,1762.71,3233.56,1450.23,3233.56Z"/> <path class="cls-14" d="M801.82,1492.4c0,1625.3,17.95,1779.16,30.18,1813.38,19.41,69.83,316.35,104.21,516.82,104.21,353.58,0,522.86-61,522.86-104.21,0,0,24.06-1591.16,15.28-1813.38-340.72-154.91-422-175.81-538.14-175.81C1210.82,1316.59,1163.07,1332.11,801.82,1492.4Z"/> </g> <path class="cls-15" d="M1345.18,1118.66c145.63,0,263.81,10.37,263.81,4.66V989.39c0-15.23-118.18-27.61-263.81-27.61s-263.8,12.38-263.8,27.61v133.93C1081.38,1129,1199.56,1118.66,1345.18,1118.66Z"/> </g> <path class="cls-16" d="M1924.45,1442.1h.13c0-14.85-255.52-137.23-325.15-316.78h-4.13c-23.47-23.15-132.4-19.69-258.73-19.69-126.92,0-228.91-3.49-250,20H1086l-.46,1.19a14.56,14.56,0,0,0-2.94,7.2c-73.52,173.44-317.45,291.7-321.69,308l-.18.08c0,1701.1,19.24,1862.14,32.35,1898,20.82,73.09,339.27,109.07,554.25,109.07,379.2,0,560.74-63.88,560.74-109.07,0,0,25.8-1665.37,16.39-1898Z"/> </g> <g> <path class="cls-17" d="M1828.24,2673.75V1644.12s-143.89,45-265.89-50.95-281.64-102.42-430.11,0-238.5,50.95-238.5,50.95V2774.33c0,32.53,210.47,58.9,468.09,58.9s466.41-26.37,466.41-58.9V2673.75Z"/> <path class="cls-18" d="M1782.42,2619.06V1805.42s-159.39,72.8-251.32,0-233.08-83.36-350.72,0-240.82,0-240.82,0v893.12c0,25.71,189.83,46.55,422.19,46.55s420.67-20.84,420.67-46.55v-79.48Z"/> <g> <path class="cls-19" d="M1671.87,2620.93H1565.29c-22.88,0-41.43-9.19-41.43-20.52s18.55-20.52,41.43-20.52H1588c22.89,0,41.44-9.19,41.44-20.52s-18.55-20.52-41.44-20.52H1458.73c-22.88,0-41.43-9.19-41.43-20.52s18.55-20.52,41.43-20.52h97.6c22.88,0,41.43-9.19,41.43-20.52s-18.55-20.52-41.43-20.52H1186.11c-22.88,0-41.43,9.18-41.43,20.52s18.55,20.52,41.43,20.52h24.5c22.88,0,41.42,9.19,41.42,20.52s-18.54,20.52-41.42,20.52h-160.5c-22.88,0-41.43,9.18-41.43,20.52s18.55,20.52,41.43,20.52h106c22.88,0,41.43,9.18,41.43,20.52s-18.55,20.52-41.43,20.52h-30.81c-22.89,0-41.43,9.19-41.43,20.52s18.54,20.52,41.43,20.52h277.09c-22.88,0-41.43,9.18-41.43,20.52s18.55,20.52,41.43,20.52H1603.1c22.88,0,41.43-9.19,41.43-20.52S1626,2662,1603.1,2662h68.77c22.88,0,41.43-9.19,41.43-20.52S1694.75,2620.93,1671.87,2620.93Z"/> <path class="cls-6" d="M1273.62,2438.65c3.08,9.16,5.89,18.12,9.43,18.12h-92.18c14.71,0,16.86-50.08,32.94-50.08,9.75,0,12.57,27.51,22.84,27.51,6.84,0,9.37-14.94,15.21-14.94,5,0,8.53,9.81,11.76,19.39,8.73-22.87,17.14-59.26,31-59.26,12,0,17.26,30.81,31.38,30.81,21.18,0,27-56.75,47.12-56.75,15.31,0,24.5,22,32.93,45.71h0c4.79-11.32,10.19-19.77,16.85-19.77,12,0,17.26,30.81,31.38,30.81,21.18,0,27-56.75,47.12-56.75,33.17,0,37.6,103.32,68,103.32H1260.86c4.69,0,8.76-7.64,12.76-18.12Z"/> <path class="cls-20" d="M1299.6,2099.58c-21.5,0-38.58,21-38.58,47.51v51.4c0,42.06-19.6,77.89-48.06,96.59V1908c0-26.48-17.08-47.51-38.58-47.51s-40.48,21-40.48,47.51v387.11c-29.09-17.14-48.06-54.53-48.06-96.59V1987.42c0-26.49-17.08-47.52-38.58-47.52s-38.58,21-38.58,47.52v211.85c0,96.59,54.39,176.81,127.12,198.62V2585.6c0,28.48,77.16,26.49,77.16,0V2397.11c72.73-21,127.12-102,127.12-198.62v-51.4C1338.81,2121.38,1320.47,2099.58,1299.6,2099.58Z"/> <path class="cls-21" d="M1594.09,2152.5a26,26,0,0,0-7.31-6.3V1956.57c0-14-6.18-25.21-14-25.21s-14.64,11.16-14.64,25.21v189.81a27.88,27.88,0,0,0-7.55,6.24c-6.13-10.45-9.84-25.5-9.84-41.89v-112c0-14-6.17-25.21-14-25.21s-14,11.16-14,25.21v112.41c0,41.71,13,77.67,32.07,95.85v166.14a56.17,56.17,0,0,1-33.1-51.25v-112c0-14.05-11.76-25.21-26.57-25.21s-26.57,11.16-26.57,25.21v112.41c0,51.25,37.46,93.82,87.54,105.39v99.61c0,15.88,53.14,14.05,53.14,0v-100c50.09-11.16,87.55-54.14,87.55-105.39V2294.6c-.88-13.64-13.51-25.21-27.88-25.21-14.81,0-26.57,11.16-26.57,25.21v27.28c0,22.32-13.5,41.33-33.1,51.25v-165.2c19.74-17.62,33.37-54.55,33.37-97.2v-27.28c-.46-13.64-7.09-25.21-14.64-25.21-7.78,0-13.95,11.16-13.95,25.21v27.28c0,16.52-3.89,31.22-10.08,41.77Z"/> </g> <path class="cls-22" d="M1704,2906.47c.34-77.7,0-105.17-.25-105.15-1.22.1-89.76,33.36-351.24,30s-352-31.1-352.19-30c-.21,1.65,0,11.42.08,100.68-100.53-11.42-140.79-23.33-140.9-22.44-.32,2.56.14,19.24.14,187.86,0-.16-1,29.78,0,30.39a9.37,9.37,0,0,0-.14,1.58c0,36.45,220.75,66,493.06,66s493.05-29.56,493.05-66a9.25,9.25,0,0,0-.3-2.33c.06,0,.09,0,.08,0l-.21-.49a10.38,10.38,0,0,0-.9-2.11h0c1-161,.5-215,0-214.94-1,.08-40.6,14.85-140.28,26.91Z"/> <path class="cls-23" d="M1676,2928.34c.31-61,0-82.58-.23-82.56-1.12.08-82.6,26.19-323.21,23.53s-324-24.42-324.08-23.53c-.19,1.29,0,9,.08,79-92.51-9-129.56-18.32-129.66-17.62-.3,2,.12,15.11.12,147.5,0-.12-1,23.39,0,23.87a6.41,6.41,0,0,0-.12,1.23c0,28.63,203.13,51.83,453.7,51.83s453.71-23.2,453.71-51.83a6.33,6.33,0,0,0-.28-1.82s.08,0,.08,0c-.07-.13-.13-.26-.2-.38a7.87,7.87,0,0,0-.83-1.67h0c.9-126.39.46-168.79,0-168.76-.88.07-37.36,11.66-129.08,21.13Z"/> <g> <g> <path class="cls-24" d="M1356.48,1713.37l171,86.54v-57.38l-171-86.54-162,81.62V1795Z"/> <path class="cls-25" d="M1527.48,1740.55,1355.86,1656l-161.36,79.15v41.2l162-79.46,171,84.26v-40.59Z"/> <path class="cls-26" d="M1527.48,1736.34,1355.86,1656,1194.5,1731.2v20.92l162-75.5,171,80.06v-20.34Z"/> </g> <path class="cls-27" d="M1250.12,1728c0,39.61,20,72,44.39,72h133c24.44,0,44.39-32.35,44.39-72s-19.95-72-44.39-72h-133C1270.07,1656,1250.12,1688.33,1250.12,1728Z"/> </g> </g> </g> <g> <path class="cls-28" d="M1466.24,3310.4c10.62-20.62,25.63-8.75,33.75.94,9.69,11.25,19.38,33.75,47.82,34.38,28.75.63,24.37-25,35-40.63,7.19-10.31,11.25-11.25,17.19-11.25s11.25,3.44,17.81,14.38c24.07,39.38,91.57,5,89.7-18.76-2.82-41.25-54.07-1.56-77.82-15.31-12.81-7.5-11.25-55-40-55.63s-27.82,45.32-44.69,43.44c-26.57-3.12-43.13-60-84.39-49.38-32.5,8.44-62.82,46.57-65.31,78.45C1390.92,3346.66,1447.49,3346.35,1466.24,3310.4Z"/> <path class="cls-29" d="M1441.82,3286.51c.33,8.48-7.34,15.66-17.15,16s-18-6.17-18.35-14.65,6.59-26.33,16.4-26.71S1441.49,3278,1441.82,3286.51Z"/> <path class="cls-30" d="M1426.57,3299.35c4.88-3.08,1.26-20.93-6-22.23-7-1.24-11.35,6.76-11.86,11.49C1407.91,3296.14,1421.71,3302.41,1426.57,3299.35Z"/> </g> </g> <g> <path class="cls-1" d="M301.91,2858c-22.18,0-39.79,23.09-38.49,49.26,7.83,119.3,28.05,425.64,39.79,497.22,12.39,70.81,75.67,151.63,101.76,182.42A35.66,35.66,0,0,0,432.36,3600H746.11a35.66,35.66,0,0,0,27.39-13.08c26.75-31.56,90-112.38,101.76-182.42,12.39-71.58,32-377.15,39.79-497.22,2-26.17-16.31-49.26-38.49-49.26Z"/> <g> <path class="cls-2" d="M595.6,3525.05c-165.44,0-160.49,23.68-160.49,32.32s53.58,20.85,160.49,20.85,147.27-12.21,147.27-20.85S761.05,3525.05,595.6,3525.05Z"/> <path class="cls-3" d="M870.48,3049.12c-543,0-563.84-19.31-562.72,0,6.76,88,24.22,314,34.36,366.82,10.7,52.24,65.34,111.87,87.88,134.58,0,0-5.73,30.31,162,30.31s150-24.06,156.22-30.31c23.09-23.28,77.73-82.91,87.87-134.58C846.82,3363.13,863.72,3137.7,870.48,3049.12Z"/> </g> <path class="cls-4" d="M602.45,3019.36c-303.78,0-294.7,18.07-294.7,24.67s98.39,15.91,294.7,15.91,270.4-9.32,270.4-15.91S906.23,3019.36,602.45,3019.36Z"/> </g> </g> </g> </g> </g> </svg>